<?xml version="1.0" encoding="UTF-8" standalone="no"?>
<svg
   version="1.0"
   width="32.234001"
   height="32"
   viewBox="0 0 24.175501 24"
   preserveAspectRatio="xMidYMid"
   id="svg19"
   sodipodi:docname="ateam_logo_ppt_v3_favicon.svg"
   inkscape:version="1.4.2 (ebf0e940, 2025-05-08)"
   xmlns:inkscape="http://www.inkscape.org/namespaces/inkscape"
   xmlns:sodipodi="http://sodipodi.sourceforge.net/DTD/sodipodi-0.dtd"
   xmlns="http://www.w3.org/2000/svg"
   xmlns:svg="http://www.w3.org/2000/svg">
  <defs
     id="defs19" />
  <sodipodi:namedview
     id="namedview19"
     pagecolor="#ffffff"
     bordercolor="#000000"
     borderopacity="0.25"
     inkscape:showpageshadow="2"
     inkscape:pageopacity="0.0"
     inkscape:pagecheckerboard="0"
     inkscape:deskcolor="#d1d1d1"
     inkscape:document-units="px"
     inkscape:zoom="0.86666667"
     inkscape:cx="-361.73077"
     inkscape:cy="191.53846"
     inkscape:window-width="976"
     inkscape:window-height="987"
     inkscape:window-x="0"
     inkscape:window-y="25"
     inkscape:window-maximized="0"
     inkscape:current-layer="svg19" />
  <g
     transform="matrix(0.00943302,0,0,-0.00948094,-22.460051,31.158114)"
     fill="#000000"
     stroke="none"
     id="g19">
    <path
       d="m 3550,3284 c -14,-2 -68,-12 -120,-20 -399,-68 -719,-305 -905,-672 -80,-159 -119,-308 -130,-502 -12,-199 30,-424 110,-592 19,-41 35,-78 35,-82 0,-3 -22,-35 -50,-70 -102,-129 -135,-228 -88,-260 52,-36 111,-13 216,86 l 52,49 78,-82 c 170,-181 369,-295 632,-360 83,-20 119,-24 285,-24 177,0 198,2 305,29 198,50 341,123 499,252 220,182 371,439 437,745 25,116 26,370 1,489 -38,177 -83,291 -179,444 l -51,80 18,31 c 60,103 75,144 75,201 0,66 -31,144 -58,144 -9,0 -71,-31 -138,-70 l -122,-70 -68,46 c -199,134 -422,202 -679,209 -71,2 -141,2 -155,-1 z m 255,-54 c 158,-18 329,-71 461,-142 62,-34 75,-48 42,-48 -14,0 -33,-7 -44,-16 -18,-15 -18,-15 3,-5 32,16 68,13 93,-7 28,-22 19,-48 -10,-32 -45,24 -77,5 -89,-52 -4,-17 -12,-33 -18,-35 -7,-3 -9,3 -6,15 8,33 -14,62 -47,62 -57,0 -80,-60 -38,-102 l 21,-21 -34,-31 -34,-30 -3,88 c -3,87 -2,90 28,121 55,57 32,83 -26,29 l -39,-35 3,-112 c 3,-103 1,-114 -17,-131 l -21,-19 v 141 c 0,86 4,142 10,142 5,0 17,11 26,25 31,48 -13,97 -69,76 -34,-13 -45,-52 -24,-85 13,-19 16,-57 18,-177 1,-138 -1,-154 -18,-166 -17,-13 -18,-10 -23,69 -4,65 -8,83 -20,83 -12,0 -15,-18 -16,-98 -1,-87 -4,-101 -22,-120 l -22,-21 v 131 c 0,129 0,131 26,147 35,23 31,74 -8,95 -24,14 -28,14 -46,-2 -27,-25 -32,-51 -16,-83 10,-19 14,-67 14,-169 v -143 l -57,-53 -58,-52 -3,290 c -2,275 -3,291 -22,308 -17,15 -20,31 -20,97 0,90 -12,83 125,68 z m -305,-30 c 0,-5 -4,-10 -10,-10 -5,0 -10,5 -10,10 0,6 5,10 10,10 6,0 10,-4 10,-10 z m 105,-11 c 0,-7 -8,-15 -17,-17 -18,-3 -25,18 -11,32 10,10 28,1 28,-15 z m -264,-22 c -1,-12 -15,-9 -19,4 -3,6 1,10 8,8 6,-3 11,-8 11,-12 z m -81,-32 c 13,-16 6,-35 -15,-35 -18,0 -28,17 -21,35 7,19 20,19 36,0 z m 320,-15 c 21,-11 54,-39 74,-63 l 36,-44 v -290 c 0,-270 -1,-291 -19,-307 -18,-16 -18,-13 -23,112 -5,139 -17,178 -67,210 -23,16 -23,16 -16,-7 5,-16 3,-26 -6,-32 -11,-6 -8,-14 14,-37 27,-28 27,-29 27,-173 0,-79 -4,-138 -8,-131 -5,7 -16,10 -25,7 -11,-5 -21,3 -32,24 -17,34 -30,39 -39,15 -6,-16 7,-48 32,-76 14,-16 9,-24 -59,-95 -98,-104 -100,-105 -74,-19 20,67 19,80 -11,115 -52,62 -153,29 -170,-55 -5,-27 -11,-31 -60,-40 l -54,-10 -10,30 c -35,101 20,218 122,260 47,20 138,20 185,1 42,-18 46,-18 38,-5 -4,6 0,22 9,35 9,13 16,41 16,60 0,32 -3,36 -22,33 -13,-2 -22,-9 -21,-16 4,-17 -36,-40 -84,-48 -40,-6 -43,-5 -53,20 -29,77 7,156 90,199 75,39 156,35 223,-11 24,-17 47,-28 51,-25 3,4 6,52 6,107 0,113 -19,172 -64,201 -74,49 -183,37 -252,-27 -38,-35 -49,-40 -101,-42 -32,-1 -75,-11 -97,-21 -38,-18 -96,-85 -96,-112 0,-7 -9,-13 -20,-13 -67,0 -163,-83 -177,-153 -4,-18 -19,-37 -42,-51 -45,-29 -90,-109 -95,-169 -2,-30 -13,-57 -31,-81 -35,-46 -57,-121 -50,-167 4,-22 2,-40 -4,-44 -6,-3 -21,-25 -32,-48 -29,-57 -28,-133 3,-195 22,-43 23,-51 12,-92 -7,-25 -10,-63 -7,-85 7,-48 38,-114 58,-122 21,-7 20,-106 0,-123 -21,-17 -25,-10 -29,41 -1,29 -13,61 -34,93 -37,57 -48,118 -35,186 8,42 7,56 -13,102 -34,78 -32,150 6,224 16,32 30,75 30,94 0,52 17,102 50,151 19,28 30,57 30,80 0,52 45,134 100,180 31,26 51,53 58,78 17,54 86,119 147,136 41,12 54,22 70,52 32,60 90,94 171,101 55,4 72,9 86,28 10,12 41,34 70,48 66,33 159,36 218,6 z m 1146,-12 c 11,-22 15,-49 12,-92 -4,-58 -15,-80 -220,-445 -119,-212 -214,-391 -211,-398 4,-10 35,-13 124,-13 65,0 119,-3 119,-7 0,-8 -75,-109 -160,-216 -48,-61 -41,-59 -193,-72 -66,-7 -68,-8 -94,-48 -45,-71 -144,-283 -150,-321 -8,-52 17,-86 63,-86 32,0 193,71 232,102 9,8 12,5 12,-9 0,-14 -45,-54 -147,-130 -181,-135 -219,-159 -277,-174 -63,-16 -112,9 -144,71 -40,77 -19,145 124,412 41,76 74,145 74,153 0,13 -41,15 -313,15 h -312 l -220,-221 c -268,-269 -507,-494 -547,-515 -44,-23 -82,-15 -86,18 -6,54 101,213 220,324 74,70 110,87 162,80 l 42,-7 139,151 c 77,83 140,156 140,163 0,8 -38,16 -120,23 -66,7 -128,15 -137,19 -44,17 2,107 107,212 64,64 129,102 174,103 23,0 23,-1 8,-18 -10,-10 -17,-28 -17,-40 0,-22 3,-22 136,-22 h 136 l 111,108 c 370,355 665,595 952,772 66,41 237,140 242,140 1,0 10,-14 19,-32 z m -1598,-30 c -6,-18 -28,-21 -28,-4 0,9 7,16 16,16 9,0 14,-5 12,-12 z m 910,-15 c -2,-10 -10,-18 -18,-18 -8,0 -16,8 -18,18 -2,12 3,17 18,17 15,0 20,-5 18,-17 z m -503,-17 c 23,-10 41,-27 52,-50 19,-41 14,-53 -15,-37 -29,15 -68,14 -102,-4 -41,-21 -38,-26 10,-19 71,11 120,-22 120,-81 0,-22 -3,-26 -17,-20 -10,5 -36,13 -58,19 -22,6 -52,19 -66,29 -62,41 -183,27 -265,-30 -36,-26 -43,-28 -81,-18 l -42,10 16,33 c 30,63 127,105 200,86 37,-9 38,-8 48,21 7,21 24,37 55,53 51,26 96,28 145,8 z m -503,-21 c 0,-5 -5,-11 -11,-13 -6,-2 -11,4 -11,13 0,9 5,15 11,13 6,-2 11,-8 11,-13 z m -94,-72 c -4,-22 -22,-20 -26,1 -2,10 3,16 13,16 10,0 15,-7 13,-17 z m 1382,-7 c 0,-3 -4,-8 -10,-11 -5,-3 -10,-1 -10,4 0,6 5,11 10,11 6,0 10,-2 10,-4 z m -435,-26 c 0,-22 -29,-18 -33,3 -3,14 1,18 15,15 10,-2 18,-10 18,-18 z m 314,-17 c -15,-18 -34,-1 -25,22 5,14 9,15 21,5 12,-10 13,-16 4,-27 z m -1335,-9 c 8,-21 -1,-34 -25,-34 -14,0 -19,7 -19,25 0,29 34,36 44,9 z m 550,-30 c 27,-10 18,-22 -22,-29 -51,-8 -93,-35 -128,-81 -26,-33 -29,-46 -30,-112 -1,-70 -3,-76 -25,-84 -13,-5 -32,-16 -41,-25 -17,-15 -19,-13 -33,20 -35,83 -8,197 58,253 63,53 164,80 221,58 z m -630,-70 c 8,-21 -1,-34 -24,-34 -22,0 -34,15 -26,35 7,20 42,19 50,-1 z m 327,6 c 19,-11 19,-12 -6,-54 -14,-23 -25,-54 -25,-69 0,-28 -15,-44 -25,-27 -3,5 -22,10 -41,10 -29,0 -48,-11 -100,-57 -80,-70 -106,-122 -103,-198 3,-53 1,-57 -29,-75 -35,-22 -62,-67 -62,-105 0,-39 25,-30 39,15 13,42 57,80 95,80 15,0 17,5 11,23 -30,89 -4,183 58,213 18,9 37,26 43,37 14,34 73,31 93,-5 14,-24 14,-28 -4,-48 -17,-18 -27,-21 -62,-16 -35,5 -43,3 -43,-10 0,-33 32,-82 65,-100 30,-16 33,-21 28,-48 -3,-17 -11,-34 -17,-38 -8,-5 -7,-8 2,-8 6,0 12,-4 12,-10 0,-5 -15,-10 -33,-10 -50,0 -134,-47 -168,-93 -18,-24 -31,-58 -35,-88 -7,-53 -17,-59 -62,-35 -46,24 -77,91 -77,168 0,71 20,113 62,132 17,8 20,16 16,47 -10,71 35,161 92,185 25,10 33,21 38,47 8,51 47,104 92,127 43,22 115,26 146,10 z m 1569,-105 c 0,-5 -5,-3 -10,5 -6,9 -10,10 -10,3 0,-7 9,-17 20,-23 25,-13 48,-59 43,-85 -3,-16 -2,-17 6,-5 8,12 16,1 39,-50 99,-217 134,-479 98,-715 -14,-91 -63,-250 -96,-315 -10,-19 -30,-61 -46,-92 -15,-32 -31,-58 -36,-58 -4,0 -8,-5 -8,-11 0,-22 -173,-229 -192,-229 -5,0 -7,13 -3,30 4,19 3,30 -4,30 -6,0 -12,-4 -12,-10 -1,-5 -2,-14 -3,-19 -2,-19 -16,-23 -16,-5 0,10 -3,29 -6,42 -5,19 -2,22 20,22 14,0 26,5 26,10 0,6 -11,10 -25,10 -27,0 -34,17 -10,26 24,9 19,37 -5,29 -16,-5 -20,-2 -20,19 0,16 -6,26 -15,26 -8,0 -15,-9 -15,-19 0,-11 -4,-23 -10,-26 -6,-4 -10,5 -10,19 0,16 -6,26 -15,26 -9,0 -15,-9 -15,-25 0,-14 -4,-25 -10,-25 -5,0 -10,11 -10,25 0,16 -6,25 -15,25 -8,0 -15,-9 -15,-20 0,-11 -4,-20 -10,-20 -5,0 -10,9 -10,21 0,27 -24,19 -28,-9 -3,-18 -9,-21 -35,-19 -38,2 -46,-26 -9,-31 12,-2 22,-8 22,-13 0,-5 -10,-10 -22,-10 l -23,-2 23,-4 c 29,-6 31,-43 2,-43 -11,0 -20,-7 -20,-15 0,-9 9,-15 21,-15 12,0 19,-5 16,-12 -2,-7 -14,-12 -27,-10 -15,3 -21,-1 -18,-10 3,-7 14,-14 26,-16 28,-4 29,-22 2,-22 -24,0 -24,1 -6,-40 l 13,-32 7,27 c 8,31 22,23 28,-14 5,-38 28,-39 28,-1 0,18 4,29 10,25 6,-3 10,-17 10,-31 0,-33 18,-31 22,4 3,30 21,33 26,4 4,-23 -54,-61 -173,-114 -88,-40 -254,-92 -263,-84 -3,3 11,27 32,52 40,52 48,78 15,48 -66,-59 -79,-74 -79,-94 0,-15 -5,-20 -17,-18 -16,3 -17,19 -14,178 2,119 7,177 14,182 9,5 13,-29 15,-128 2,-101 6,-134 15,-131 8,2 13,45 15,144 2,113 5,142 17,147 13,5 15,-14 15,-121 0,-110 2,-124 15,-113 12,10 15,38 15,135 0,97 3,125 15,135 13,11 15,4 15,-55 0,-49 3,-66 13,-63 7,3 13,30 15,73 3,63 13,95 32,95 3,0 5,-25 2,-56 -4,-44 -2,-55 8,-49 8,5 11,26 8,64 -3,49 -1,60 16,73 21,15 21,14 18,-67 l -4,-83 -54,-57 c -48,-50 -67,-85 -47,-85 4,0 35,29 70,65 l 63,65 v 69 69 l 51,56 c 28,31 47,56 43,56 -4,0 6,15 23,33 17,17 34,42 38,55 7,23 21,26 74,16 34,-7 42,-24 11,-24 -11,0 -20,-4 -20,-10 0,-5 9,-10 21,-10 17,0 20,-5 17,-32 -2,-18 2,-33 10,-35 7,-3 12,4 12,16 0,11 5,23 10,26 6,4 10,-5 10,-19 0,-16 6,-26 15,-26 9,0 15,10 15,26 0,14 4,23 10,19 6,-3 10,-15 10,-26 0,-10 7,-19 15,-19 9,0 15,10 15,26 0,14 4,23 10,19 6,-3 10,-15 10,-26 0,-11 7,-19 16,-19 9,0 14,7 12,18 -1,9 2,19 7,22 6,3 11,-5 13,-17 5,-31 22,-29 22,2 0,33 16,32 26,-2 7,-27 7,-27 15,12 4,22 5,48 3,58 -4,13 1,17 21,17 32,0 29,22 -4,30 -32,7 -31,24 2,28 23,3 26,6 16,18 -6,8 -18,14 -25,14 -8,0 -14,5 -14,10 0,6 9,10 20,10 11,0 20,7 20,15 0,8 -9,15 -20,15 -29,0 -25,18 5,26 30,7 28,28 -3,32 -14,2 -22,11 -23,25 -2,22 -2,22 -6,0 -7,-35 -33,-29 -33,7 0,17 -4,30 -10,30 -5,0 -10,-11 -10,-24 0,-37 -17,-41 -25,-6 -8,35 -25,31 -25,-6 0,-32 -18,-31 -22,1 -4,33 -22,33 -26,0 -4,-29 -22,-24 -22,6 0,10 -7,19 -15,19 -9,0 -15,-10 -15,-26 0,-15 -4,-23 -11,-18 -6,3 -9,15 -6,25 3,12 0,19 -9,19 -8,0 -14,-10 -14,-25 0,-20 -5,-25 -26,-25 -19,0 -25,-4 -22,-17 3,-12 12,-17 26,-16 14,2 22,-3 22,-12 0,-9 -10,-15 -26,-15 -31,0 -28,-23 4,-28 12,-2 22,-9 22,-17 0,-10 -26,-13 -112,-14 l -113,-1 -47,-51 c -33,-36 -52,-50 -63,-45 -9,3 -25,6 -36,6 -10,0 -19,7 -19,15 0,10 10,15 29,15 22,0 39,12 76,56 30,35 53,53 62,50 8,-3 21,1 29,9 14,13 11,15 -29,15 -34,0 -49,-6 -67,-25 -26,-28 -70,-34 -70,-10 0,8 6,15 13,15 7,0 26,13 41,29 16,16 39,32 52,35 13,4 24,11 24,16 0,19 -54,10 -78,-12 -29,-26 -28,-25 22,60 40,66 58,74 110,51 20,-10 30,-9 50,5 14,9 38,16 54,16 16,0 32,3 35,6 15,15 91,14 108,-2 37,-34 88,-1 75,49 -10,40 -53,48 -80,15 -12,-14 -34,-28 -49,-30 -31,-6 -31,-7 3,43 22,34 29,37 87,43 75,8 160,-2 188,-20 26,-18 45,-18 67,3 22,20 23,51 1,75 -21,23 -34,23 -66,-2 -23,-18 -38,-20 -124,-18 l -98,3 33,18 c 18,10 32,25 32,36 0,10 9,30 21,45 16,20 29,26 60,26 23,0 47,-7 55,-15 18,-18 65,-20 82,-3 7,7 12,24 12,38 0,14 -5,31 -12,38 -19,19 -63,14 -83,-8 -23,-25 -81,-27 -107,-3 -15,13 -43,18 -118,21 l -98,4 16,33 17,32 17,-28 c 12,-19 26,-29 42,-29 52,0 74,60 35,95 -17,16 -25,17 -50,8 -31,-12 -31,-6 -1,30 13,14 33,17 122,17 63,0 110,4 117,11 8,8 17,8 33,-1 17,-9 26,-8 46,5 30,20 33,69 5,85 -45,24 -83,3 -83,-45 v -25 h -104 c -79,0 -104,3 -104,13 0,26 25,37 84,37 73,0 96,17 96,70 0,25 5,40 15,44 8,3 20,17 27,30 15,34 -12,76 -48,76 -28,0 -28,0 1,47 17,28 21,29 32,15 7,-10 12,-21 13,-27 z m -1972,-8 c 4,-20 -25,-34 -40,-19 -15,15 -1,44 19,40 10,-2 19,-11 21,-21 z m 1942,-82 c 0,-8 -9,-15 -20,-15 -11,0 -20,7 -20,15 0,8 9,15 20,15 11,0 20,-7 20,-15 z m -2012,-12 c -2,-10 -10,-18 -18,-18 -8,0 -16,8 -18,18 -2,12 3,17 18,17 15,0 20,-5 18,-17 z m 1960,-81 c -3,-37 -4,-37 -50,-40 -27,-2 -48,0 -48,4 0,13 33,44 47,44 8,0 13,12 13,33 0,19 3,37 7,41 13,12 34,-44 31,-82 z m -1501,-40 c -23,-22 -31,-25 -54,-16 -31,10 -45,44 -19,44 9,0 26,11 37,25 l 22,24 20,-25 20,-26 z m -489,31 c 5,-17 -26,-29 -40,-15 -6,6 -7,15 -3,22 9,14 37,9 43,-7 z m 2127,-83 c 0,-8 -8,-16 -17,-18 -13,-2 -18,3 -18,18 0,15 5,20 18,18 9,-2 17,-10 17,-18 z m -2179,-1 c 10,-17 -13,-36 -27,-22 -12,12 -4,33 11,33 5,0 12,-5 16,-11 z m 792,-115 c 41,-28 19,-114 -29,-114 -10,0 -21,5 -24,10 -3,6 5,10 19,10 32,0 39,12 26,44 -11,31 -40,34 -47,6 -7,-26 -43,-27 -43,-1 0,20 43,61 64,61 6,0 22,-7 34,-16 z m -814,-10 c 7,-19 -10,-44 -31,-44 -17,0 -27,24 -19,45 7,20 42,19 50,-1 z m 1934,-31 c -2,-10 -10,-18 -18,-18 -8,0 -16,8 -18,18 -2,12 3,17 18,17 15,0 20,-5 18,-17 z m -1408,-31 c 0,-11 -25,-36 -59,-60 -33,-23 -79,-67 -103,-97 -23,-30 -46,-55 -49,-55 -12,0 -19,47 -13,82 10,49 29,81 69,116 33,29 45,35 100,45 28,5 55,-10 55,-31 z m -566,-51 c 3,-5 -1,-14 -8,-20 -16,-13 -32,2 -21,19 8,12 22,13 29,1 z m 754,-3 c 21,-21 13,-28 -27,-28 -49,0 -61,15 -24,28 37,14 37,14 51,0 z m 1488,-19 c 10,-17 -13,-36 -27,-22 -12,12 -4,33 11,33 5,0 12,-5 16,-11 z m -2082,-27 c 4,-10 15,-28 27,-40 18,-20 19,-24 4,-44 -8,-12 -15,-34 -15,-47 0,-26 35,-71 56,-71 9,0 7,-14 -8,-47 -16,-35 -21,-67 -21,-118 2,-91 -12,-110 -44,-58 -27,45 -30,113 -8,167 15,36 15,38 -9,67 -34,41 -43,108 -21,164 18,48 30,56 39,27 z m 132,-118 c 8,-30 -11,-54 -42,-54 -30,0 -49,33 -34,59 19,37 66,34 76,-5 z m 1964,-29 c 0,-8 -9,-15 -20,-15 -11,0 -20,7 -20,15 0,8 9,15 20,15 11,0 20,-7 20,-15 z m -2267,-26 c -17,-17 -37,-1 -22,17 8,10 15,12 23,4 7,-7 7,-13 -1,-21 z m 357,-102 c 15,-9 42,-17 59,-17 h 30 l -24,-26 c -31,-33 -33,-82 -4,-117 l 20,-27 -38,-40 -38,-40 -34,27 c -40,32 -81,114 -81,163 0,38 31,113 58,143 16,19 17,18 20,-15 2,-25 10,-39 32,-51 z m 1673,12 c -17,-17 -37,-1 -22,17 8,10 15,12 23,4 7,-7 7,-13 -1,-21 z m -2000,-35 c -3,-8 -12,-14 -19,-14 -20,0 -30,30 -13,40 17,11 40,-7 32,-26 z m 1043,-45 c 8,-16 21,-29 29,-29 11,0 15,-12 15,-44 0,-52 -24,-76 -76,-76 -38,0 -55,19 -63,68 -5,31 -11,37 -34,40 -72,9 -75,-78 -5,-155 20,-21 20,-21 -1,-28 -34,-10 -61,-54 -61,-97 0,-86 101,-121 161,-57 49,53 37,114 -29,148 -69,35 -112,103 -92,142 14,25 30,24 30,-1 0,-34 28,-79 60,-95 35,-18 60,-19 110,-4 44,13 50,30 50,145 0,67 2,74 20,74 19,0 20,-7 20,-157 0,-133 -3,-166 -20,-208 l -19,-50 -1,85 c 0,100 -8,120 -35,90 -14,-15 -18,-34 -17,-68 2,-75 -17,-138 -47,-152 -14,-7 -21,-15 -14,-17 7,-2 21,1 32,7 17,8 21,8 21,-4 0,-7 -6,-16 -14,-19 -8,-3 -20,-18 -28,-33 -16,-32 -91,-63 -158,-66 l -45,-1 30,-13 c 37,-16 59,-17 108,-3 45,12 104,62 110,92 3,13 5,8 6,-15 1,-29 -6,-44 -32,-71 -83,-88 -254,-70 -297,32 -6,15 -27,35 -46,44 -19,9 -43,31 -54,49 -54,89 13,240 116,265 44,10 54,38 14,38 -23,0 -25,4 -28,55 -2,41 3,63 17,87 l 20,32 116,-1 h 116 z m 204,-39 c 0,-63 -2,-70 -20,-70 -18,0 -20,7 -20,70 0,63 2,70 20,70 18,0 20,-7 20,-70 z m 60,43 c -1,-16 -7,-41 -15,-58 -13,-30 -13,-29 -14,28 -1,44 2,57 14,57 10,0 15,-10 15,-27 z m -794,2 c 2,-5 -15,-30 -37,-55 -38,-43 -40,-44 -54,-26 -35,46 -4,99 54,94 19,-2 36,-7 37,-13 z m 209,-87 c 0,-47 -5,-68 -18,-83 -16,-18 -20,-18 -44,-5 -52,30 -51,44 8,99 30,27 54,50 54,51 0,0 0,-28 0,-62 z m -725,42 c 0,-5 -4,-10 -10,-10 -5,0 -10,5 -10,10 0,6 5,10 10,10 6,0 10,-4 10,-10 z m 20,-75 c 0,-8 -4,-15 -9,-15 -13,0 -22,16 -14,24 11,11 23,6 23,-9 z m 2100,-89 c 0,-120 3,-116 -98,-116 -116,0 -112,-4 -112,116 v 104 h 105 105 z m -1872,34 32,-39 -37,-10 c -38,-11 -55,-2 -48,23 2,6 6,23 9,39 4,15 8,27 10,27 1,0 17,-18 34,-40 z m 1000,18 c -7,-19 -38,-22 -38,-4 0,10 9,16 21,16 12,0 19,-5 17,-12 z m -591,-61 c 14,-14 13,-17 -6,-33 -11,-10 -26,-33 -32,-51 -9,-29 -15,-33 -45,-33 -40,0 -44,-12 -10,-28 16,-7 26,-22 30,-47 8,-43 70,-115 98,-115 30,0 18,-31 -21,-57 -43,-29 -110,-30 -171,-2 -90,41 -128,102 -115,187 6,40 16,55 86,125 l 80,79 46,-5 c 25,-2 52,-12 60,-20 z m 887,7 c 22,-8 20,-21 -4,-29 -25,-8 -41,1 -33,20 6,16 13,18 37,9 z m -1469,-24 c 0,-8 -8,-16 -17,-18 -13,-2 -18,3 -18,18 0,15 5,20 18,18 9,-2 17,-10 17,-18 z m 1685,5 c 0,-6 -136,-85 -146,-85 -5,0 9,18 30,39 28,29 49,41 75,44 20,2 37,4 39,5 1,1 2,0 2,-3 z m 130,-9 c 0,-13 -41,-26 -80,-26 -10,0 -20,9 -23,20 -5,18 0,20 49,20 39,0 54,-4 54,-14 z m -911,-40 c 7,-8 11,-30 9,-48 -3,-29 -7,-33 -36,-36 -54,-5 -78,30 -52,79 13,23 62,26 79,5 z m 511,-61 c 0,-8 -2,-15 -4,-15 -2,0 -6,7 -10,15 -3,8 -1,15 4,15 6,0 10,-7 10,-15 z m 55,-5 c -3,-5 -10,-10 -16,-10 -5,0 -9,5 -9,10 0,6 7,10 16,10 8,0 12,-4 9,-10 z m -1205,-92 c 1,-35 34,-102 66,-132 38,-36 70,-52 121,-61 29,-4 44,-13 48,-26 20,-63 102,-119 181,-124 44,-3 60,-9 80,-30 52,-56 137,-70 210,-34 57,27 94,98 94,180 0,32 -4,60 -9,64 -9,5 -39,-52 -71,-133 -20,-52 -54,-72 -121,-72 -49,0 -60,4 -74,22 -9,14 -11,24 -5,26 5,2 10,9 10,15 0,8 -28,13 -86,14 -86,2 -121,14 -151,52 -20,26 -15,38 20,45 19,3 44,17 57,31 l 22,24 24,-29 c 14,-16 44,-35 67,-44 46,-17 170,-29 162,-16 -3,5 5,12 17,15 13,4 46,21 75,37 39,24 53,38 57,62 l 6,31 20,-33 c 18,-30 20,-51 20,-242 0,-133 -4,-210 -10,-210 -6,0 -10,38 -10,95 0,52 -2,95 -4,95 -2,0 -21,-17 -42,-39 -54,-54 -127,-70 -207,-47 -31,9 -72,30 -91,46 -23,21 -44,30 -67,30 -50,0 -129,41 -171,88 -21,23 -38,46 -38,51 0,5 -18,12 -40,16 -53,9 -127,59 -162,110 -33,47 -46,108 -28,130 18,22 30,19 30,-7 z m -85,-67 c -3,-6 -11,-11 -17,-11 -6,0 -6,6 2,15 14,17 26,13 15,-4 z m 1655,-126 v -95 h -85 -85 v 95 95 h 85 85 z m -1620,65 c 0,-5 -4,-10 -10,-10 -5,0 -10,5 -10,10 0,6 5,10 10,10 6,0 10,-4 10,-10 z m 55,-60 c 11,-17 -5,-32 -21,-19 -7,6 -11,15 -8,20 7,12 21,11 29,-1 z m 889,4 c 14,-5 16,-32 16,-190 0,-177 -1,-184 -20,-184 -19,0 -20,7 -20,190 0,105 2,190 4,190 2,0 11,-3 20,-6 z m 76,-194 c 0,-153 -2,-180 -15,-180 -13,0 -15,27 -15,180 0,153 2,180 15,180 13,0 15,-27 15,-180 z m -899,117 c -13,-13 -26,-3 -16,12 3,6 11,8 17,5 6,-4 6,-10 -1,-17 z m 1539,-3 c 0,-8 -5,-12 -10,-9 -6,4 -8,11 -5,16 9,14 15,11 15,-7 z m -1436,-30 c 8,-21 -1,-34 -24,-34 -20,0 -30,17 -22,38 6,17 39,15 46,-4 z m 1380,-35 c -8,-14 -24,-10 -24,6 0,9 6,12 15,9 8,-4 12,-10 9,-15 z M 3097,994 c 9,-23 -13,-40 -32,-24 -12,10 -13,16 -4,26 15,18 28,18 36,-2 z m 103,-59 c 0,-8 -7,-15 -15,-15 -8,0 -15,7 -15,15 0,8 7,15 15,15 8,0 15,-7 15,-15 z m 114,-34 c 3,-5 -1,-14 -8,-20 -16,-13 -32,2 -21,19 8,12 22,13 29,1 z m 292,-42 c 10,-17 -13,-36 -27,-22 -12,12 -4,33 11,33 5,0 12,-5 16,-11 z"
       id="path1" />
    <path
       d="m 3742,3144 c -28,-19 -28,-58 -1,-85 21,-21 21,-28 18,-264 -2,-134 -1,-247 3,-251 20,-19 28,64 28,273 0,210 1,227 20,250 11,14 20,32 20,39 0,18 -36,54 -53,54 -7,0 -23,-7 -35,-16 z m 48,-37 c 0,-8 -3,-17 -7,-20 -9,-9 -34,13 -27,24 8,14 34,11 34,-4 z"
       id="path2" />
    <path
       d="m 3851,3057 c -8,-12 -10,-19 -6,-15 5,5 14,-1 22,-12 8,-11 20,-20 26,-20 7,0 5,5 -5,10 -9,6 -14,18 -11,29 7,28 -11,33 -26,8 z"
       id="path3" />
    <path
       d="m 3922,3011 c -10,-6 -10,-11 3,-21 19,-16 30,-7 18,14 -5,9 -13,12 -21,7 z"
       id="path4" />
    <path
       d="m 4428,2887 c -156,-105 -314,-228 -513,-402 -123,-107 -325,-307 -325,-321 0,-11 46,-12 233,-8 127,3 241,7 252,10 13,3 44,46 90,126 39,67 141,238 227,381 87,142 155,263 152,268 -9,15 -19,11 -116,-54 z m 40,-28 c -2,-7 -19,-17 -38,-23 -32,-10 -35,-15 -35,-51 -1,-26 -12,-59 -32,-95 -53,-92 -53,-92 -50,-1 2,79 4,85 28,100 14,9 45,31 69,49 44,33 64,40 58,21 z m -190,-183 -2,-63 -207,-212 c -113,-116 -209,-211 -212,-211 -4,0 -7,11 -7,24 0,18 47,73 180,209 173,177 180,186 180,225 0,33 6,45 31,66 17,14 33,26 35,26 3,0 4,-29 2,-64 z m -108,-48 c 0,-16 -52,-75 -175,-198 -154,-154 -175,-179 -175,-207 0,-27 -4,-33 -21,-33 -20,0 -20,3 -14,73 4,39 8,72 9,72 0,0 16,14 35,30 l 34,30 -19,-29 c -18,-29 -18,-29 2,-18 12,6 56,48 100,94 101,106 207,208 217,208 4,0 7,-10 7,-22 z m 85,-125 c -15,-26 -86,-108 -159,-180 -110,-112 -135,-133 -161,-133 -28,0 -16,14 155,185 101,101 186,182 188,180 3,-2 -8,-26 -23,-52 z m -127,-215 c -8,-13 -24,-40 -37,-60 -16,-27 -30,-38 -47,-38 -13,0 -24,3 -24,7 0,7 110,112 119,113 2,0 -3,-10 -11,-22 z m -378,-48 c 0,-38 -4,-50 -15,-50 -18,0 -21,51 -5,81 16,29 20,23 20,-31 z m -60,-35 c 0,-18 -5,-25 -20,-25 -24,0 -25,8 -3,32 21,23 23,23 23,-7 z"
       id="path5" />
    <path
       d="m 4680,2515 c -11,-13 -10,-14 4,-9 9,3 16,10 16,15 0,13 -6,11 -20,-6 z"
       id="path6" />
    <path
       d="m 4577,2283 c -14,-13 -7,-21 17,-19 18,1 22,4 14,14 -12,13 -21,15 -31,5 z"
       id="path7" />
    <path
       d="m 4765,2281 c -10,-17 9,-20 30,-5 18,14 18,14 -2,14 -12,0 -24,-4 -28,-9 z"
       id="path8" />
    <path
       d="m 4630,2238 c 0,-17 -10,-22 -37,-19 -24,3 -13,-19 13,-25 19,-5 31,-1 47,16 12,13 17,20 10,16 -6,-3 -16,2 -22,11 -10,17 -10,17 -11,1 z"
       id="path9" />
    <path
       d="m 4760,2237 c 0,-8 8,-22 19,-31 16,-15 19,-15 24,-1 4,8 2,15 -3,15 -5,0 -16,7 -24,16 -13,13 -16,13 -16,1 z"
       id="path10" />
    <path
       d="m 4712,1896 c -15,-20 -30,-26 -78,-29 l -59,-3 61,-2 c 54,-2 64,-5 78,-27 9,-14 25,-25 35,-25 40,0 68,69 39,98 -20,20 -55,14 -76,-12 z m 56,-28 c -6,-18 -28,-21 -28,-4 0,9 7,16 16,16 9,0 14,-5 12,-12 z"
       id="path11" />
    <path
       d="m 4258,1729 c -26,-15 -23,-65 3,-80 51,-27 94,36 51,74 -21,19 -30,20 -54,6 z m 42,-45 c 0,-8 -7,-14 -15,-14 -15,0 -21,21 -9,33 10,9 24,-2 24,-19 z"
       id="path12" />
    <path
       d="m 4742,1718 c -30,-30 0,-85 39,-72 l 24,8 -25,6 c -31,7 -40,40 -11,40 11,0 25,-8 31,-17 9,-15 10,-13 8,12 -2,24 -8,31 -28,33 -14,2 -31,-3 -38,-10 z"
       id="path13" />
    <path
       d="m 4497,1323 c -14,-13 -7,-60 11,-76 25,-22 38,-21 56,4 22,32 3,79 -33,79 -15,0 -31,-3 -34,-7 z m 43,-38 c 0,-8 -4,-15 -10,-15 -5,0 -10,7 -10,15 0,8 5,15 10,15 6,0 10,-7 10,-15 z"
       id="path14" />
    <path
       d="m 4089,1058 c -35,-40 -72,-79 -81,-86 -37,-27 -14,-92 32,-92 45,0 68,59 33,85 -15,11 -12,18 34,71 49,58 70,94 54,94 -4,0 -37,-33 -72,-72 z m -34,-128 c 0,-22 -29,-18 -33,3 -3,14 1,18 15,15 10,-2 18,-10 18,-18 z"
       id="path15" />
    <path
       d="m 4136,1013 c -40,-42 -32,-58 12,-21 23,20 42,58 29,58 -3,0 -21,-17 -41,-37 z"
       id="path16" />
    <path
       d="m 2966,1761 c -4,-5 3,-7 14,-4 23,6 26,13 6,13 -8,0 -17,-4 -20,-9 z"
       id="path17" />
    <path
       d="m 4450,1580 v -80 h 75 75 v 80 80 h -75 -75 z"
       id="path18" />
    <path
       d="m 4280,1160 v -71 l 58,3 57,3 3,68 3,67 h -61 -60 z"
       id="path19" />
  </g>
</svg>
